<svg xmlns="http://www.w3.org/2000/svg" xml:space="preserve" width="1080" height="1080" viewBox="0 0 285.75 285.75"><path d="M-7.596-11.618h302.505v306.526H-7.596z" style="fill:#fff;fill-opacity:1;stroke-width:2.49083;stroke-linecap:round;stroke-linejoin:round;paint-order:stroke fill markers"/><path d="M160.086 233.63c-.56-.084-3.153-.773-5.763-1.53s-7.033-2.042-9.83-2.855c-8.124-2.362-15.117-4.236-16.947-4.541-.932-.156-3.144-.589-4.915-.963-6.453-1.362-10.664-1.784-18.134-1.82-9.576-.044-14.081.51-18.982 2.33-1.118.416-4.806 1.984-8.194 3.484s-6.439 2.777-6.779 2.836c-.34.06-1.07.274-1.623.478-3.043 1.12-6.205 1.13-7.067.019-.255-.329-.54-.53-.632-.446-.223.202-2.166-1.735-3.839-3.827-.74-.925-1.606-1.942-1.926-2.26s-.677-.969-.794-1.449-.36-.955-.54-1.055c-.332-.186-2.332-3.825-2.332-4.245 0-.126-.218-.663-.484-1.194-.8-1.594-2.905-6.875-2.905-7.288 0-.211-.614-2.628-1.365-5.37-.75-2.743-1.506-5.983-1.679-7.201s-.622-3.935-.998-6.039c-2.248-12.57-2.88-20.361-2.555-31.512.223-7.653.787-12.029 2.563-19.886 1.226-5.423 1.74-7.272 3.057-11.014a247 247 0 0 0 1.371-3.977c.474-1.462 1.995-4.978 2.316-5.354.144-.168.375-.784.514-1.368s.744-1.961 1.345-3.06 2.06-3.786 3.241-5.974c1.182-2.187 2.882-5.023 3.779-6.302s1.63-2.43 1.63-2.558c0-.129.648-1.034 1.44-2.011.793-.978 1.814-2.338 2.27-3.023.456-.684 1.257-1.667 1.78-2.184.522-.516.95-1.064.95-1.216s.648-.961 1.44-1.798c.793-.837 2.204-2.352 3.136-3.367 1.726-1.88 12.033-11.432 12.033-11.153 0 .085.775-.51 1.722-1.32.946-.811 1.942-1.546 2.211-1.634.27-.088 1.059-.646 1.753-1.24.694-.593 2.281-1.726 3.527-2.517 2.916-1.852 8.364-5.109 8.546-5.109.077 0 1.108-.504 2.291-1.121 2.967-1.547 8.973-4.2 11.727-5.18a128 128 0 0 0 3.644-1.357 37 37 0 0 1 3.05-1.021l4.915-1.387c4.488-1.266 5.23-1.428 11.355-2.478 9.634-1.65 13.106-1.947 22.88-1.954 9.723-.006 15.053.417 23.218 1.845 2.424.424 5.246.891 6.27 1.038 1.026.146 3.696.806 5.933 1.466s4.506 1.293 5.043 1.407 2.215.733 3.729 1.376c1.513.643 3.127 1.274 3.586 1.402.458.128 1.802.731 2.986 1.34 1.184.608 2.617 1.323 3.184 1.588 1.71.798 4.293 2.846 6.785 5.378 1.355 1.378 3.658 5.913 3.887 7.655.156 1.187.036 1.864-.536 3.032-1.951 3.982-5.514 5.328-14.103 5.328-1.95 0-3.545.088-3.545.197 0 .108 2.822 2.735 6.27 5.838 3.45 3.102 6.272 5.732 6.273 5.845s.687.858 1.525 1.656c.838.799 1.524 1.66 1.524 1.913s.152.46.339.46c.186 0 .339.195.339.433s.129.48.287.535c.95.337 6.076 8.763 6.523 13.54.452 4.844-.837 7.592-1.384 9.355-.63 2.032-3.153 5.597-4.579 6.47-1.903 1.166-5.26 2.097-7.549 2.094-2.125-.002-6.998-.955-8.521-1.666-.529-.247-1.043-.375-1.143-.285-.168.151-.879-.214-4.48-2.302-.746-.432-2.636-1.751-4.2-2.931a379 379 0 0 0-3.898-2.909c-.58-.42-1.36-1.042-1.732-1.382-.988-.9-6.536-5.044-6.755-5.044-.103 0-1.065-.553-2.139-1.23-3.858-2.429-9.595-3.39-12.937-2.166-1.616.592-6.324 3.872-6.631 4.62-.104.253-.725 1.01-1.38 1.683-1.325 1.36-3.94 5.927-4.696 8.201-.707 2.125-.998 7.55-.587 10.92.446 3.655.447 3.659 1.75 6.923a682 682 0 0 1 1.62 4.09c.295.758 1.037 2.178 1.649 3.156a62 62 0 0 1 1.791 3.059c.374.705 1.67 2.658 2.879 4.34a679 679 0 0 1 3.14 4.401c.518.738 1.182 1.564 1.476 1.836s.976 1.045 1.514 1.718a48 48 0 0 0 2.008 2.321c.565.604 1.562 1.699 2.215 2.434 1.616 1.821 8.82 8.35 11.524 10.444 2.612 2.023 8.76 6.37 9.008 6.37.096 0 1.15.654 2.342 1.453 1.193.8 3.168 2.004 4.389 2.677s4.192 2.19 4.194 2.316c-2.272-.72-1.237-.82.203.08.577.391 2.422 1.374 4.1 2.184 53.28 25.717 32.214 51.572-54.911 38.509zM61.479 209.5c.141-5.107.628-7.975 2.068-12.194.466-1.365.987-3 1.157-3.634s.754-2.01 1.295-3.06c.542-1.048 1.46-2.86 2.038-4.027.579-1.166 1.43-2.568 1.892-3.115.463-.547.979-1.322 1.147-1.722.594-1.408 4.598-5.924 7.806-8.803 3.03-2.72 7.918-6.097 9.853-6.81.466-.172 2.068-.828 3.56-1.458 3.266-1.38 4.066-1.562 9.49-2.15 2.378-.258 4.248-.231 8.474.12 3.21.267 8.537.43 13.05.4l7.626-.05 2.543-1.148c3.756-1.695 4.071-1.886 6.058-3.65 2.604-2.312 3.857-4.832 4.05-8.14.183-3.15-.343-5.407-1.832-7.856-1.443-2.374-2.195-3.236-4.966-5.69-5.578-4.943-13.709-7.807-23.817-8.392-5.796-.335-11.753.261-25.591 2.56-1.958.326-3.603.557-3.656.514-.175-.142 2.497-3.04 4.193-4.547 3.463-3.08 11.583-7.374 15.732-8.321.094-.021.627-.21 1.187-.418 3.753-1.398 9.342-2.52 21.41-4.301 3.7-.546 7.083-1.215 7.86-1.554 6.052-2.639 8.844-5.87 8.847-10.235 0-2.57-2.368-5.578-5.474-6.951-3.427-1.514-5.74-1.894-11.459-1.882-5.506.011-9.232.53-13.826 1.928-2.783.846-2.965.808-1.94-.404 2.559-3.029 9.23-5.504 17.11-6.35 3.996-.43 12.39-.17 16.282.502 1.585.274 3.339.563 3.898.642 2.437.343 4.598.882 7.288 1.815 1.584.55 3.491 1.168 4.237 1.374.745.206 2.042.697 2.88 1.091.84.395 2.741 1.21 4.227 1.812 1.485.602 2.781 1.192 2.88 1.311.1.12.944.56 1.876.98.932.421 2.804 1.42 4.159 2.219 1.355.8 2.58 1.454 2.72 1.454.322 0 3.894 2.406 4.175 2.812.114.165.298.253.408.197.308-.158 4.473 2.581 9.984 6.568 14.28 10.33 17.413 11.826 24.023 11.473 3.188-.17 5.229-.913 7.345-2.674 3.467-2.884 3.837-6.613 1.202-12.104-.807-1.683-1.546-3.129-1.642-3.213s-1.066-1.358-2.156-2.831-2.178-2.781-2.417-2.906c-.239-.126-.725-.642-1.08-1.146-1.358-1.929-8.215-8.178-14.498-13.211a666 666 0 0 1-4.19-3.377c-1.006-.83-2.442-3.202-2.442-4.032 0-.335.368-.995.818-1.468.776-.814.964-.858 3.644-.852 1.554.003 5.114.119 7.91.256 6.292.31 7.574.105 8.41-1.342.737-1.274.602-3.661-.296-5.229-.986-1.72-3.853-3.852-7.982-5.933-2.165-1.091-4.113-1.984-4.33-1.984s-1.42-.46-2.674-1.024c-1.254-.563-3.119-1.274-4.144-1.58a542 542 0 0 1-4.153-1.265c-2.945-.91-7.079-1.843-9.236-2.084-.932-.104-3.067-.42-4.745-.704-4.48-.757-21.404-.743-27.116.021-2.238.3-4.754.615-5.593.702-2.445.252-5.024.727-8.474 1.562a331 331 0 0 1-5.762 1.334c-1.399.306-3.992 1.057-5.763 1.668-1.77.612-3.677 1.22-4.237 1.35-1.217.287-5.281 1.816-5.766 2.17-.189.139-1.19.537-2.224.887-1.034.349-2.766 1.116-3.85 1.705-1.083.589-2.093 1.07-2.243 1.07s-1.198.517-2.329 1.148c-1.13.631-2.72 1.491-3.531 1.912-2.328 1.206-7.447 4.446-8.158 5.162-.355.358-.812.652-1.017.652-.204.001-.943.476-1.642 1.056-.7.58-1.806 1.422-2.459 1.871a38 38 0 0 0-2.494 1.928c-5.041 4.283-5.963 5.11-5.898 5.295.04.115-.342.53-.85.921-.509.392-1.361 1.193-1.894 1.78a65 65 0 0 1-2.458 2.5c-.818.786-1.488 1.557-1.488 1.711s-.298.524-.663.822c-.364.298-1.531 1.696-2.593 3.107-1.062 1.41-2.042 2.565-2.177 2.565s-.447.448-.69.995c-.48 1.073-3.034 4.6-3.454 4.768-.141.056-.184.209-.095.339s-.377 1.043-1.035 2.03c-1.332 1.995-4.885 8.551-4.885 9.012 0 .162-.12.295-.267.295-.146 0-.288.256-.314.568-.045.542-1.34 3.535-2.301 5.318a9.3 9.3 0 0 0-.694 1.836c-.134.548-.818 2.58-1.522 4.515-.704 1.936-1.505 4.482-1.78 5.66a692 692 0 0 1-1.364 5.66c-1.638 6.682-1.905 8.751-2.627 20.406-.397 6.416-.387 6.798.56 21.814.6 9.493 4.897 23.491 8.771 28.57.66.863 1.2 1.652 1.2 1.75 0 .337 2.2 2.38 2.489 2.311.157-.037.347-2.266.42-4.953" style="fill:#00bee6;fill-opacity:1;stroke-width:1.21808"/></svg>